# xmcd
#
# Track frame offsets:
#	150
#	12912
#	27542
#	41187
#	53567
#	65314
#	83242
#	95435
#	106730
#	128280
#	142685
#	158945
#	173670
#	185990
#	198652
#	215280
#	227542
#	244750
#
# Disc length: 3414 seconds
#
# Revision: 0
# Processed by: cddbd v1.5.1PL0 Copyright (c) Steve Scherf et al.
# Submitted via: audiograbber 1.83.01
#
DISCID=e90d5412
DTITLE=Various Artist - Country Duets
DYEAR=1997
DGENRE=Country
TTITLE0=Waylon Jennings and Willie Nelson - Just To Satisfy You
TTITLE1=George Jones and Merle Haggard - Yesterday's Wine
TTITLE2=George Jones and Tammy Wynette - Golden Ring
TTITLE3=Johnny Cash With June Carter Cash - Jackson
TTITLE4=George Jones and Brenda Carter - Milwaukee, Here I Come
TTITLE5=Waylon Jennings and Jessi Colter - Suspicious Minds
TTITLE6=Merle Haggard and Leona Williams - The Bull And The Beaver
TTITLE7=Conwat Twitty and Loretta Lynn - Louisiana Woman, Mississippi Man
TTITLE8=Willie Nelson and Merle Haggard - Pancho And Lefty
TTITLE9=Johnny Duncan and Janie Frickie - Come A Little Bit Closer
TTITLE10=Merle Haggard and Janie Frickie - A Place To Fall Apart
TTITLE11=Johnny Cash and Waylon Jennings - There Ain't No Good Chain Gang
TTITLE12=Merle Haggard and Bonnie Owens - . Just Between The Two Of Us
TTITLE13=Porter Wagoner and Dolly Parton - Please Don't Stop Loving Me
TTITLE14=Tammy Wynette and Mark Gray - Sometimes When We Touch
TTITLE15=George Jones and Gene Pitney - Louisiana Man
TTITLE16=Willie Nelson With Ray Price - Faded Love
TTITLE17=Red Sovine and Webb Pierce - Why Baby Why
EXTD=
EXTT0=
EXTT1=
EXTT2=
EXTT3=
EXTT4=
EXTT5=
EXTT6=
EXTT7=
EXTT8=
EXTT9=
EXTT10=
EXTT11=
EXTT12=
EXTT13=
EXTT14=
EXTT15=
EXTT16=
EXTT17=
PLAYORDER=
